<mxfile host="app.diagrams.net" agent="Mozilla/5.0 (Windows NT 10.0; Win64; x64) AppleWebKit/537.36 (KHTML, like Gecko) Chrome/130.0.0.0 Safari/537.36 Edg/130.0.0.0" version="24.8.3">
  <diagram name="第 1 页" id="Ngn38vlfGIJVapEfCcMY">
    <mxGraphModel dx="2066" dy="1141" grid="1" gridSize="10" guides="1" tooltips="1" connect="1" arrows="1" fold="1" page="1" pageScale="1" pageWidth="2400" pageHeight="2400" math="1" shadow="0">
      <root>
        <mxCell id="0" />
        <mxCell id="1" parent="0" />
        <mxCell id="GXjnVmRRi3_lvmigwqmh-82" style="rounded=0;orthogonalLoop=1;jettySize=auto;html=1;exitX=1;exitY=0.5;exitDx=0;exitDy=0;entryX=0;entryY=0.5;entryDx=0;entryDy=0;" edge="1" parent="1" source="GXjnVmRRi3_lvmigwqmh-2" target="GXjnVmRRi3_lvmigwqmh-6">
          <mxGeometry relative="1" as="geometry">
            <mxPoint x="440" y="160" as="targetPoint" />
          </mxGeometry>
        </mxCell>
        <mxCell id="GXjnVmRRi3_lvmigwqmh-83" style="rounded=0;orthogonalLoop=1;jettySize=auto;html=1;exitX=1;exitY=0.5;exitDx=0;exitDy=0;entryX=0;entryY=0.5;entryDx=0;entryDy=0;" edge="1" parent="1" source="GXjnVmRRi3_lvmigwqmh-2" target="GXjnVmRRi3_lvmigwqmh-71">
          <mxGeometry relative="1" as="geometry" />
        </mxCell>
        <mxCell id="GXjnVmRRi3_lvmigwqmh-84" style="rounded=0;orthogonalLoop=1;jettySize=auto;html=1;entryX=0;entryY=0.5;entryDx=0;entryDy=0;exitX=1;exitY=0.5;exitDx=0;exitDy=0;" edge="1" parent="1" source="GXjnVmRRi3_lvmigwqmh-2" target="GXjnVmRRi3_lvmigwqmh-74">
          <mxGeometry relative="1" as="geometry">
            <mxPoint x="251" y="274" as="sourcePoint" />
          </mxGeometry>
        </mxCell>
        <mxCell id="GXjnVmRRi3_lvmigwqmh-2" value="&lt;font style=&quot;font-size: 18px;&quot;&gt;`x_{1}^{1}`&lt;/font&gt;" style="ellipse;whiteSpace=wrap;html=1;" vertex="1" parent="1">
          <mxGeometry x="120" y="200" width="120" height="80" as="geometry" />
        </mxCell>
        <mxCell id="GXjnVmRRi3_lvmigwqmh-85" style="rounded=0;orthogonalLoop=1;jettySize=auto;html=1;exitX=1;exitY=0.5;exitDx=0;exitDy=0;entryX=0;entryY=0.5;entryDx=0;entryDy=0;" edge="1" parent="1" source="GXjnVmRRi3_lvmigwqmh-4" target="GXjnVmRRi3_lvmigwqmh-6">
          <mxGeometry relative="1" as="geometry" />
        </mxCell>
        <mxCell id="GXjnVmRRi3_lvmigwqmh-86" style="rounded=0;orthogonalLoop=1;jettySize=auto;html=1;entryX=0;entryY=0.5;entryDx=0;entryDy=0;exitX=1;exitY=0.5;exitDx=0;exitDy=0;" edge="1" parent="1" source="GXjnVmRRi3_lvmigwqmh-4" target="GXjnVmRRi3_lvmigwqmh-71">
          <mxGeometry relative="1" as="geometry" />
        </mxCell>
        <mxCell id="GXjnVmRRi3_lvmigwqmh-87" style="rounded=0;orthogonalLoop=1;jettySize=auto;html=1;entryX=0;entryY=0.5;entryDx=0;entryDy=0;exitX=1;exitY=0.5;exitDx=0;exitDy=0;" edge="1" parent="1" source="GXjnVmRRi3_lvmigwqmh-4" target="GXjnVmRRi3_lvmigwqmh-74">
          <mxGeometry relative="1" as="geometry" />
        </mxCell>
        <mxCell id="GXjnVmRRi3_lvmigwqmh-4" value="`x_{2}^{1}`" style="ellipse;whiteSpace=wrap;html=1;" vertex="1" parent="1">
          <mxGeometry x="120" y="360" width="120" height="80" as="geometry" />
        </mxCell>
        <mxCell id="GXjnVmRRi3_lvmigwqmh-88" style="rounded=0;orthogonalLoop=1;jettySize=auto;html=1;entryX=0;entryY=0.5;entryDx=0;entryDy=0;exitX=1;exitY=0.5;exitDx=0;exitDy=0;" edge="1" parent="1" source="GXjnVmRRi3_lvmigwqmh-5" target="GXjnVmRRi3_lvmigwqmh-6">
          <mxGeometry relative="1" as="geometry" />
        </mxCell>
        <mxCell id="GXjnVmRRi3_lvmigwqmh-89" style="rounded=0;orthogonalLoop=1;jettySize=auto;html=1;entryX=0;entryY=0.5;entryDx=0;entryDy=0;exitX=1;exitY=0.5;exitDx=0;exitDy=0;" edge="1" parent="1" source="GXjnVmRRi3_lvmigwqmh-5" target="GXjnVmRRi3_lvmigwqmh-71">
          <mxGeometry relative="1" as="geometry" />
        </mxCell>
        <mxCell id="GXjnVmRRi3_lvmigwqmh-90" style="rounded=0;orthogonalLoop=1;jettySize=auto;html=1;entryX=0;entryY=0.5;entryDx=0;entryDy=0;exitX=1;exitY=0.5;exitDx=0;exitDy=0;" edge="1" parent="1" source="GXjnVmRRi3_lvmigwqmh-5" target="GXjnVmRRi3_lvmigwqmh-74">
          <mxGeometry relative="1" as="geometry" />
        </mxCell>
        <mxCell id="GXjnVmRRi3_lvmigwqmh-5" value="`b^{1}`" style="ellipse;whiteSpace=wrap;html=1;" vertex="1" parent="1">
          <mxGeometry x="120" y="600" width="120" height="80" as="geometry" />
        </mxCell>
        <mxCell id="GXjnVmRRi3_lvmigwqmh-12" value="" style="group" vertex="1" connectable="0" parent="1">
          <mxGeometry x="440" y="120" width="120" height="80" as="geometry" />
        </mxCell>
        <mxCell id="GXjnVmRRi3_lvmigwqmh-6" value="" style="ellipse;whiteSpace=wrap;html=1;" vertex="1" parent="GXjnVmRRi3_lvmigwqmh-12">
          <mxGeometry width="120" height="80" as="geometry" />
        </mxCell>
        <mxCell id="GXjnVmRRi3_lvmigwqmh-11" value="" style="endArrow=none;html=1;rounded=0;entryX=0.5;entryY=0;entryDx=0;entryDy=0;exitX=0.5;exitY=1;exitDx=0;exitDy=0;" edge="1" parent="GXjnVmRRi3_lvmigwqmh-12" source="GXjnVmRRi3_lvmigwqmh-6" target="GXjnVmRRi3_lvmigwqmh-6">
          <mxGeometry width="50" height="50" relative="1" as="geometry">
            <mxPoint x="480" y="510" as="sourcePoint" />
            <mxPoint x="250" y="600" as="targetPoint" />
          </mxGeometry>
        </mxCell>
        <mxCell id="GXjnVmRRi3_lvmigwqmh-19" value="`b^{2}`" style="ellipse;whiteSpace=wrap;html=1;" vertex="1" parent="1">
          <mxGeometry x="440" y="600" width="120" height="80" as="geometry" />
        </mxCell>
        <mxCell id="GXjnVmRRi3_lvmigwqmh-70" value="" style="group" vertex="1" connectable="0" parent="1">
          <mxGeometry x="440" y="280" width="120" height="80" as="geometry" />
        </mxCell>
        <mxCell id="GXjnVmRRi3_lvmigwqmh-71" value="" style="ellipse;whiteSpace=wrap;html=1;" vertex="1" parent="GXjnVmRRi3_lvmigwqmh-70">
          <mxGeometry width="120" height="80" as="geometry" />
        </mxCell>
        <mxCell id="GXjnVmRRi3_lvmigwqmh-72" value="" style="endArrow=none;html=1;rounded=0;entryX=0.5;entryY=0;entryDx=0;entryDy=0;exitX=0.5;exitY=1;exitDx=0;exitDy=0;" edge="1" parent="GXjnVmRRi3_lvmigwqmh-70" source="GXjnVmRRi3_lvmigwqmh-71" target="GXjnVmRRi3_lvmigwqmh-71">
          <mxGeometry width="50" height="50" relative="1" as="geometry">
            <mxPoint x="480" y="510" as="sourcePoint" />
            <mxPoint x="250" y="600" as="targetPoint" />
          </mxGeometry>
        </mxCell>
        <mxCell id="GXjnVmRRi3_lvmigwqmh-73" value="" style="group" vertex="1" connectable="0" parent="1">
          <mxGeometry x="440" y="440" width="120" height="80" as="geometry" />
        </mxCell>
        <mxCell id="GXjnVmRRi3_lvmigwqmh-74" value="" style="ellipse;whiteSpace=wrap;html=1;" vertex="1" parent="GXjnVmRRi3_lvmigwqmh-73">
          <mxGeometry width="120" height="80" as="geometry" />
        </mxCell>
        <mxCell id="GXjnVmRRi3_lvmigwqmh-75" value="" style="endArrow=none;html=1;rounded=0;entryX=0.5;entryY=0;entryDx=0;entryDy=0;exitX=0.5;exitY=1;exitDx=0;exitDy=0;" edge="1" parent="GXjnVmRRi3_lvmigwqmh-73" source="GXjnVmRRi3_lvmigwqmh-74" target="GXjnVmRRi3_lvmigwqmh-74">
          <mxGeometry width="50" height="50" relative="1" as="geometry">
            <mxPoint x="480" y="510" as="sourcePoint" />
            <mxPoint x="250" y="600" as="targetPoint" />
          </mxGeometry>
        </mxCell>
        <mxCell id="GXjnVmRRi3_lvmigwqmh-76" value="" style="group" vertex="1" connectable="0" parent="1">
          <mxGeometry x="760" y="200" width="120" height="80" as="geometry" />
        </mxCell>
        <mxCell id="GXjnVmRRi3_lvmigwqmh-77" value="" style="ellipse;whiteSpace=wrap;html=1;" vertex="1" parent="GXjnVmRRi3_lvmigwqmh-76">
          <mxGeometry width="120" height="80" as="geometry" />
        </mxCell>
        <mxCell id="GXjnVmRRi3_lvmigwqmh-78" value="" style="endArrow=none;html=1;rounded=0;entryX=0.5;entryY=0;entryDx=0;entryDy=0;exitX=0.5;exitY=1;exitDx=0;exitDy=0;" edge="1" parent="GXjnVmRRi3_lvmigwqmh-76" source="GXjnVmRRi3_lvmigwqmh-77" target="GXjnVmRRi3_lvmigwqmh-77">
          <mxGeometry width="50" height="50" relative="1" as="geometry">
            <mxPoint x="480" y="510" as="sourcePoint" />
            <mxPoint x="250" y="600" as="targetPoint" />
          </mxGeometry>
        </mxCell>
        <mxCell id="GXjnVmRRi3_lvmigwqmh-79" value="" style="group" vertex="1" connectable="0" parent="1">
          <mxGeometry x="760" y="360" width="120" height="80" as="geometry" />
        </mxCell>
        <mxCell id="GXjnVmRRi3_lvmigwqmh-80" value="" style="ellipse;whiteSpace=wrap;html=1;" vertex="1" parent="GXjnVmRRi3_lvmigwqmh-79">
          <mxGeometry width="120" height="80" as="geometry" />
        </mxCell>
        <mxCell id="GXjnVmRRi3_lvmigwqmh-81" value="" style="endArrow=none;html=1;rounded=0;entryX=0.5;entryY=0;entryDx=0;entryDy=0;exitX=0.5;exitY=1;exitDx=0;exitDy=0;" edge="1" parent="GXjnVmRRi3_lvmigwqmh-79" source="GXjnVmRRi3_lvmigwqmh-80" target="GXjnVmRRi3_lvmigwqmh-80">
          <mxGeometry width="50" height="50" relative="1" as="geometry">
            <mxPoint x="480" y="510" as="sourcePoint" />
            <mxPoint x="250" y="600" as="targetPoint" />
          </mxGeometry>
        </mxCell>
        <mxCell id="GXjnVmRRi3_lvmigwqmh-91" style="edgeStyle=orthogonalEdgeStyle;rounded=0;orthogonalLoop=1;jettySize=auto;html=1;exitX=1;exitY=0.5;exitDx=0;exitDy=0;" edge="1" parent="1" source="GXjnVmRRi3_lvmigwqmh-6" target="GXjnVmRRi3_lvmigwqmh-77">
          <mxGeometry relative="1" as="geometry" />
        </mxCell>
        <mxCell id="GXjnVmRRi3_lvmigwqmh-93" style="edgeStyle=orthogonalEdgeStyle;rounded=0;orthogonalLoop=1;jettySize=auto;html=1;entryX=0;entryY=0.5;entryDx=0;entryDy=0;" edge="1" parent="1" source="GXjnVmRRi3_lvmigwqmh-71" target="GXjnVmRRi3_lvmigwqmh-77">
          <mxGeometry relative="1" as="geometry" />
        </mxCell>
        <mxCell id="GXjnVmRRi3_lvmigwqmh-94" style="edgeStyle=orthogonalEdgeStyle;rounded=0;orthogonalLoop=1;jettySize=auto;html=1;entryX=0;entryY=0.5;entryDx=0;entryDy=0;" edge="1" parent="1" source="GXjnVmRRi3_lvmigwqmh-71" target="GXjnVmRRi3_lvmigwqmh-80">
          <mxGeometry relative="1" as="geometry" />
        </mxCell>
        <mxCell id="GXjnVmRRi3_lvmigwqmh-95" style="edgeStyle=orthogonalEdgeStyle;rounded=0;orthogonalLoop=1;jettySize=auto;html=1;entryX=0;entryY=0.5;entryDx=0;entryDy=0;" edge="1" parent="1" source="GXjnVmRRi3_lvmigwqmh-6" target="GXjnVmRRi3_lvmigwqmh-80">
          <mxGeometry relative="1" as="geometry" />
        </mxCell>
      </root>
    </mxGraphModel>
  </diagram>
</mxfile>
